<svg width="15" height="12" viewBox="0 0 15 12" fill="none" xmlns="http://www.w3.org/2000/svg">
<path d="M12.6981 0.994766C11.7256 0.526291 10.6993 0.19218 9.6449 0.000793797C9.63532 -0.00104232 9.62544 0.000325489 9.61664 0.00470381C9.60783 0.00908213 9.60057 0.01625 9.59585 0.0251965C9.464 0.271269 9.3179 0.592438 9.21568 0.844808C8.0627 0.663599 6.91572 0.663599 5.78644 0.844808C5.68414 0.58677 5.53279 0.271269 5.40034 0.0251965C5.39546 0.0163946 5.38816 0.00935109 5.37939 0.00499479C5.37062 0.000638486 5.3608 -0.000826229 5.35122 0.000793797C4.29673 0.191747 3.27039 0.525874 2.29804 0.994766C2.28976 0.998547 2.28275 1.00486 2.27794 1.01287C0.33333 4.06209 -0.199321 7.03637 0.0619794 9.97381C0.0635717 9.98832 0.0705853 10.0016 0.0814795 10.0106C1.36443 10.9996 2.60726 11.6 3.82699 11.9979C3.83648 12.0008 3.8466 12.0007 3.856 11.9974C3.86541 11.9942 3.87365 11.9881 3.87964 11.9798C4.16816 11.5662 4.42534 11.1302 4.64592 10.6716C4.64895 10.6654 4.65069 10.6585 4.65101 10.6514C4.65132 10.6444 4.65021 10.6374 4.64776 10.6308C4.6453 10.6243 4.64154 10.6183 4.63674 10.6134C4.63194 10.6085 4.62619 10.6047 4.61989 10.6023C4.21189 10.4398 3.82346 10.2418 3.44981 10.0169C3.44301 10.0127 3.43729 10.0068 3.43317 9.99977C3.42905 9.99269 3.42665 9.98467 3.42619 9.97639C3.42572 9.96812 3.4272 9.95985 3.4305 9.95231C3.43379 9.94478 3.4388 9.93821 3.44509 9.93319C3.52392 9.87135 3.60139 9.80763 3.67744 9.74207C3.6841 9.7363 3.69217 9.7326 3.70073 9.73138C3.70928 9.73015 3.718 9.73145 3.72589 9.73514C6.1808 10.9115 8.83843 10.9115 11.2643 9.73514C11.2722 9.73123 11.281 9.72974 11.2897 9.73086C11.2984 9.73197 11.3066 9.73564 11.3134 9.74143C11.3896 9.80735 11.4672 9.87129 11.5464 9.93319C11.5527 9.93816 11.5577 9.94469 11.5611 9.95219C11.5644 9.9597 11.566 9.96795 11.5656 9.97622C11.5652 9.9845 11.5628 9.99254 11.5588 9.99964C11.5547 10.0067 11.549 10.0127 11.5423 10.0169C11.1684 10.2461 10.7768 10.4417 10.3716 10.6017C10.3653 10.6042 10.3596 10.6081 10.3549 10.6131C10.3501 10.6181 10.3464 10.6241 10.344 10.6307C10.3416 10.6373 10.3406 10.6444 10.3409 10.6514C10.3413 10.6585 10.3431 10.6654 10.3462 10.6716C10.5705 11.1266 10.8264 11.5636 11.1118 11.9792C11.1176 11.9876 11.1258 11.994 11.1352 11.9973C11.1447 12.0007 11.1549 12.0009 11.1644 11.9979C12.3901 11.6 13.6329 10.9996 14.9159 10.0106C14.9214 10.0064 14.926 10.001 14.9293 9.99472C14.9327 9.98848 14.9348 9.98157 14.9354 9.97444C15.2482 6.57847 14.4115 3.62851 12.7176 1.0135C12.7135 1.00498 12.7065 0.998319 12.6981 0.994766ZM5.01252 8.18526C4.27339 8.18526 3.66439 7.4731 3.66439 6.59846C3.66439 5.72383 4.26162 5.01166 5.01252 5.01166C5.76927 5.01166 6.37235 5.73012 6.3605 6.59846C6.3605 7.4731 5.76334 8.18526 5.01252 8.18526ZM9.99673 8.18526C9.2576 8.18526 8.64868 7.4731 8.64868 6.59846C8.64868 5.72383 9.24583 5.01166 9.99673 5.01166C10.7535 5.01166 11.3566 5.73012 11.3448 6.59846C11.3448 7.4731 10.7535 8.18526 9.99673 8.18526Z" fill="#8C889A"/>
</svg>
