<svg width="14" height="12" viewBox="0 0 14 12" fill="none" xmlns="http://www.w3.org/2000/svg">
<path fill-rule="evenodd" clip-rule="evenodd" d="M11.8714 11.2133V11.2119L11.8841 11.1823L14 0.774511V0.74147C14 0.481965 13.9012 0.255499 13.6881 0.119896C13.5012 0.000812005 13.286 -0.00744807 13.135 0.00356544C12.9945 0.0160744 12.8558 0.0437781 12.7215 0.0861667C12.6642 0.104002 12.6078 0.124212 12.5522 0.146741L12.543 0.150183L0.746289 4.66503L0.742761 4.66641C0.706619 4.67763 0.671463 4.69167 0.637635 4.7084C0.553784 4.74526 0.473296 4.78902 0.397043 4.83918C0.24535 4.94106 -0.0432188 5.1806 0.00546397 5.56057C0.0456802 5.87583 0.267928 6.07545 0.418209 6.17939C0.506715 6.24035 0.602122 6.29116 0.702545 6.33082L0.725123 6.34046L0.732178 6.34253L0.737117 6.34459L2.80155 7.02261C2.79402 7.14927 2.80743 7.27661 2.84177 7.40464L3.87539 11.2311C3.93186 11.4397 4.05387 11.6258 4.2243 11.7633C4.39473 11.9007 4.60501 11.9827 4.82561 11.9975C5.04621 12.0124 5.26604 11.9595 5.45424 11.8463C5.64244 11.733 5.78955 11.5651 5.87491 11.3661L7.48921 9.68237L10.2613 11.7557L10.3008 11.7722C10.5527 11.8796 10.7876 11.9133 11.0028 11.8851C11.218 11.8562 11.3888 11.7681 11.5172 11.6682C11.6657 11.5508 11.7841 11.4011 11.8629 11.2311L11.8685 11.2194L11.8707 11.2153L11.8714 11.2133ZM3.86481 7.14169C3.85336 7.09924 3.85608 7.05432 3.87258 7.01348C3.88907 6.97263 3.91848 6.93797 3.95653 6.91454L10.9563 2.57797C10.9563 2.57797 11.3683 2.33361 11.3535 2.57797C11.3535 2.57797 11.4269 2.62065 11.206 2.82096C10.9972 3.01163 6.2171 7.51409 5.7331 7.96977C5.70683 7.99575 5.68809 8.02805 5.67877 8.06339L4.89844 10.9682L3.86481 7.14169Z" fill="#8C889A"/>
</svg>
