<svg width="16" height="16" viewBox="0 0 16 16" fill="none" xmlns="http://www.w3.org/2000/svg">
<path fill-rule="evenodd" clip-rule="evenodd" d="M5.76133 0.316149C4.20885 0.766535 2.82871 1.67247 1.80097 2.91575C0.773232 4.15903 0.145615 5.68194 0 7.28579H3.67183C3.88587 4.84516 4.5964 2.47343 5.76018 0.315006L5.76133 0.316149ZM3.67183 8.71423H0C0.145312 10.3181 0.772661 11.8412 1.8002 13.0847C2.82773 14.3282 4.20774 15.2344 5.76018 15.685C4.5964 13.5266 3.88587 11.1549 3.67183 8.71423ZM7.60069 15.9901C6.2095 13.7927 5.35656 11.3004 5.11073 8.71423H10.8881C10.6423 11.3004 9.78935 13.7927 8.39816 15.9901C8.1325 16.0033 7.86635 16.0033 7.60069 15.9901ZM10.2398 15.6839C11.7921 15.2333 13.172 14.3273 14.1995 13.084C15.227 11.8407 15.8545 10.3179 16 8.71423H12.3282C12.1141 11.1549 11.4036 13.5266 10.2398 15.685V15.6839ZM12.3282 7.28579H16C15.8547 5.68188 15.2273 4.15883 14.1998 2.91534C13.1723 1.67184 11.7923 0.765659 10.2398 0.315006C11.4036 2.47343 12.1141 4.84516 12.3282 7.28579ZM7.60069 0.00989125C7.86673 -0.00329708 8.13327 -0.00329708 8.39931 0.00989125C9.7901 2.20738 10.6426 4.69974 10.8881 7.28579H5.11188C5.36087 4.68375 6.21572 2.18912 7.60069 0.00989125Z" fill="#8C889A"/>
</svg>
