<svg width="16" height="16" viewBox="0 0 16 16" fill="none" xmlns="http://www.w3.org/2000/svg">
<path fill-rule="evenodd" clip-rule="evenodd" d="M2.90909 0C2.13755 0 1.39761 0.306493 0.852053 0.852053C0.306493 1.39761 0 2.13755 0 2.90909V13.0909C0 13.8624 0.306493 14.6024 0.852053 15.1479C1.39761 15.6935 2.13755 16 2.90909 16H13.0909C13.8624 16 14.6024 15.6935 15.1479 15.1479C15.6935 14.6024 16 13.8624 16 13.0909V2.90909C16 2.13755 15.6935 1.39761 15.1479 0.852053C14.6024 0.306493 13.8624 0 13.0909 0H2.90909ZM13.8182 9.02836C13.8182 9.45406 13.6491 9.86232 13.3481 10.1633C13.047 10.4643 12.6388 10.6335 12.2131 10.6335H8.20073C8.12986 10.6331 8.06201 10.6048 8.0119 10.5546C7.96179 10.5045 7.93347 10.4367 7.93309 10.3658V6.36582C7.93309 6.27709 7.97673 6.19273 8.05382 6.14764C8.36981 5.96272 8.72379 5.85227 9.08886 5.82467C9.45394 5.79708 9.8205 5.85307 10.1607 5.98839C10.5009 6.12371 10.8058 6.33479 11.0521 6.60561C11.2985 6.87642 11.4799 7.19984 11.5825 7.55127C11.8267 7.44696 12.093 7.40485 12.3575 7.42874C12.6219 7.45263 12.8763 7.54175 13.0979 7.68813C13.3195 7.83451 13.5012 8.03358 13.6269 8.26748C13.7526 8.50138 13.8184 8.76282 13.8182 9.02836ZM6.86327 6.21964C7.08436 6.21964 7.264 6.39927 7.264 6.62036V10.3658C7.2663 10.4199 7.25764 10.4739 7.23852 10.5246C7.2194 10.5753 7.19023 10.6216 7.15276 10.6607C7.11529 10.6998 7.07029 10.7309 7.02048 10.7521C6.97067 10.7734 6.91707 10.7844 6.86291 10.7844C6.80875 10.7844 6.75515 10.7734 6.70534 10.7521C6.65553 10.7309 6.61053 10.6998 6.57306 10.6607C6.53559 10.6216 6.50642 10.5753 6.4873 10.5246C6.46818 10.4739 6.45951 10.4199 6.46182 10.3658V6.62036C6.46182 6.39927 6.64146 6.21964 6.86327 6.21964ZM4.43855 7.69091C4.43414 7.58749 4.38996 7.48977 4.31522 7.41814C4.24048 7.34652 4.14097 7.30654 4.03746 7.30654C3.93394 7.30654 3.83443 7.34652 3.75969 7.41814C3.68495 7.48977 3.64077 7.58749 3.63636 7.69091V10.3658C3.64077 10.4692 3.68495 10.567 3.75969 10.6386C3.83443 10.7102 3.93394 10.7502 4.03746 10.7502C4.14097 10.7502 4.24048 10.7102 4.31522 10.6386C4.38996 10.567 4.43414 10.4692 4.43855 10.3658V7.69091ZM5.43636 7.82473C5.65818 7.82473 5.83782 8.00436 5.83782 8.22546V10.3658C5.83782 10.4723 5.79552 10.5744 5.72024 10.6497C5.64495 10.725 5.54284 10.7673 5.43636 10.7673C5.32989 10.7673 5.22778 10.725 5.15249 10.6497C5.07721 10.5744 5.03491 10.4723 5.03491 10.3658V8.22546C5.03491 8.00436 5.21455 7.82473 5.43636 7.82473ZM2.58327 8.09164C2.80436 8.09164 2.984 8.272 2.984 8.49309V9.83127C2.9863 9.88538 2.97764 9.9394 2.95852 9.99007C2.9394 10.0407 2.91023 10.087 2.87276 10.1261C2.83529 10.1652 2.79029 10.1963 2.74048 10.2176C2.69067 10.2389 2.63707 10.2498 2.58291 10.2498C2.52875 10.2498 2.47515 10.2389 2.42534 10.2176C2.37553 10.1963 2.33053 10.1652 2.29306 10.1261C2.25559 10.087 2.22642 10.0407 2.2073 9.99007C2.18818 9.9394 2.17951 9.88538 2.18182 9.83127V8.49309C2.18182 8.27127 2.36145 8.09164 2.58327 8.09164Z" fill="#F04923"/>
<path d="M13.8182 9.02836C13.8182 9.45406 13.6491 9.86232 13.3481 10.1633C13.047 10.4643 12.6388 10.6335 12.2131 10.6335H8.20073C8.12986 10.6331 8.06201 10.6048 8.0119 10.5546C7.96179 10.5045 7.93347 10.4367 7.93309 10.3658V6.36582C7.93309 6.27709 7.97673 6.19273 8.05382 6.14764C8.36981 5.96272 8.72379 5.85227 9.08886 5.82467C9.45394 5.79708 9.8205 5.85307 10.1607 5.98839C10.5009 6.12371 10.8058 6.33479 11.0521 6.60561C11.2985 6.87642 11.4799 7.19984 11.5825 7.55127C11.8267 7.44696 12.093 7.40485 12.3575 7.42874C12.6219 7.45263 12.8763 7.54175 13.0979 7.68813C13.3195 7.83451 13.5012 8.03358 13.6269 8.26748C13.7526 8.50138 13.8184 8.76282 13.8182 9.02836Z" fill="white"/>
<path d="M6.86327 6.21964C7.08436 6.21964 7.264 6.39927 7.264 6.62036V10.3658C7.2663 10.4199 7.25764 10.4739 7.23852 10.5246C7.2194 10.5753 7.19023 10.6216 7.15276 10.6607C7.11529 10.6998 7.07029 10.7309 7.02048 10.7521C6.97067 10.7734 6.91707 10.7844 6.86291 10.7844C6.80875 10.7844 6.75515 10.7734 6.70534 10.7521C6.65553 10.7309 6.61053 10.6998 6.57306 10.6607C6.53559 10.6216 6.50642 10.5753 6.4873 10.5246C6.46818 10.4739 6.45951 10.4199 6.46182 10.3658V6.62036C6.46182 6.39927 6.64146 6.21964 6.86327 6.21964Z" fill="white"/>
<path d="M5.43636 7.82473C5.65818 7.82473 5.83782 8.00436 5.83782 8.22546V10.3658C5.83782 10.4723 5.79552 10.5744 5.72024 10.6497C5.64495 10.725 5.54284 10.7673 5.43636 10.7673C5.32989 10.7673 5.22778 10.725 5.15249 10.6497C5.07721 10.5744 5.03491 10.4723 5.03491 10.3658V8.22546C5.03491 8.00436 5.21455 7.82473 5.43636 7.82473Z" fill="white"/>
<path d="M4.43855 7.69091C4.43414 7.58749 4.38996 7.48977 4.31522 7.41814C4.24048 7.34652 4.14097 7.30654 4.03746 7.30654C3.93394 7.30654 3.83443 7.34652 3.75969 7.41814C3.68495 7.48977 3.64077 7.58749 3.63636 7.69091V10.3658C3.64077 10.4692 3.68495 10.567 3.75969 10.6386C3.83443 10.7102 3.93394 10.7502 4.03746 10.7502C4.14097 10.7502 4.24048 10.7102 4.31522 10.6386C4.38996 10.567 4.43414 10.4692 4.43855 10.3658V7.69091Z" fill="white"/>
<path d="M2.58327 8.09164C2.80436 8.09164 2.984 8.272 2.984 8.49309V9.83127C2.9863 9.88538 2.97764 9.9394 2.95852 9.99007C2.9394 10.0407 2.91023 10.087 2.87276 10.1261C2.83529 10.1652 2.79029 10.1963 2.74048 10.2176C2.69067 10.2389 2.63707 10.2498 2.58291 10.2498C2.52875 10.2498 2.47515 10.2389 2.42534 10.2176C2.37553 10.1963 2.33053 10.1652 2.29306 10.1261C2.25559 10.087 2.22642 10.0407 2.2073 9.99007C2.18818 9.9394 2.17951 9.88538 2.18182 9.83127V8.49309C2.18182 8.27127 2.36145 8.09164 2.58327 8.09164Z" fill="white"/>
</svg>
