<svg width="16" height="16" viewBox="0 0 16 16" fill="none" xmlns="http://www.w3.org/2000/svg">
<path d="M8 0C3.58175 0 0 3.58181 0 8C0 12.4185 3.58181 16 8 16C12.4186 16 16 12.4185 16 8C16 3.58213 12.4186 0.0004375 7.99988 0.0004375L8 0ZM11.6687 11.5384C11.5254 11.7734 11.2177 11.8479 10.9827 11.7036C9.10444 10.5563 6.73994 10.2964 3.95525 10.9327C3.8263 10.962 3.69096 10.939 3.57901 10.8686C3.46706 10.7982 3.38765 10.6862 3.35825 10.5573C3.34361 10.4934 3.3417 10.4273 3.35263 10.3628C3.36356 10.2982 3.38711 10.2364 3.42194 10.181C3.45677 10.1255 3.5022 10.0775 3.55562 10.0396C3.60903 10.0017 3.6694 9.97472 3.73325 9.96019C6.78075 9.26394 9.39469 9.56369 11.5034 10.8524C11.7384 10.9967 11.8129 11.3034 11.6687 11.5384ZM12.6479 9.36006C12.4672 9.6535 12.0833 9.74619 11.79 9.56563C9.63963 8.24388 6.36169 7.86106 3.81825 8.63313C3.48837 8.73275 3.14 8.54688 3.03988 8.21756C2.9405 7.88769 3.1265 7.53994 3.45581 7.43969C6.36112 6.55806 9.973 6.98513 12.4425 8.50263C12.7358 8.68325 12.8284 9.06719 12.6479 9.36006ZM12.7319 7.09175C10.1536 5.56025 5.89962 5.41937 3.43794 6.16663C3.04262 6.2865 2.62456 6.06331 2.50481 5.668C2.385 5.2725 2.60794 4.85475 3.00356 4.73456C5.82938 3.87669 10.5271 4.0425 13.4956 5.80475C13.8519 6.01575 13.9684 6.475 13.7573 6.83006C13.5472 7.18569 13.0867 7.30288 12.7323 7.09175H12.7319Z" fill="#1ED760"/>
</svg>
