<svg width="16" height="16" viewBox="0 0 16 16" fill="none" xmlns="http://www.w3.org/2000/svg">
<path fill-rule="evenodd" clip-rule="evenodd" d="M4.57855 1.31929C5.53464 -0.067664 7.43406 -0.416941 8.82101 0.539156L14.6807 4.57855C16.0677 5.53464 16.4169 7.43406 15.4608 8.82101L11.4215 14.6807C10.4654 16.0677 8.56594 16.4169 7.17899 15.4608L1.31929 11.4215C-0.067664 10.4654 -0.416941 8.56594 0.539156 7.17899L4.57855 1.31929ZM6.10035 5.99312C6.15496 4.92079 6.86984 4.0669 8.26486 4.0669C9.51591 4.0669 10.3698 4.84136 10.3698 5.86404C10.3698 6.64346 9.96768 7.19452 9.33222 7.57678C8.70173 7.94912 8.52301 8.22713 8.52301 8.7484V9.07109H7.65423V8.61436C7.64927 7.95905 7.96699 7.51225 8.64713 7.10516C9.223 6.75268 9.44641 6.43992 9.44641 5.90872C9.44641 5.29313 8.96982 4.84136 8.23011 4.84136C7.48047 4.84136 7.00388 5.2832 6.94927 5.99312H6.10035ZM7.52515 10.7689C7.52515 11.0867 7.77338 11.3349 8.0911 11.3349C8.4138 11.3349 8.65705 11.0867 8.65705 10.7689C8.65705 10.4463 8.4138 10.203 8.0911 10.203C7.77338 10.203 7.52515 10.4463 7.52515 10.7689Z" fill="#663CFF"/>
</svg>
