<svg width="16" height="16" viewBox="0 0 16 16" fill="none" xmlns="http://www.w3.org/2000/svg">
<path d="M13.556 6.69491L13.512 6.47658L11.6553 6.15223L12.7342 4.69254L12.6088 4.55533L11.0218 5.31635L11.2225 3.29528L11.0594 3.20178L10.0934 4.83602L9.00833 2.40329H8.82015L9.07733 4.75496L6.34877 2.57172L6.11668 2.64033L8.21794 5.27895L4.05926 3.89412L3.87108 4.10621L7.58446 6.22091L2.45972 6.64494L2.40329 6.96316L7.72872 7.54324L3.2877 11.2173L3.47589 11.4731L8.76365 8.59747L7.71621 13.6626H8.03615L10.0622 8.89686L11.2978 12.6271L11.5174 12.4587L11.0093 8.66607L12.935 10.8493L13.0605 10.6497L11.5864 7.94245L13.6438 8.70347L13.6626 8.47269L11.8185 7.11282L13.556 6.69491Z" fill="#FED42B"/>
<path fill-rule="evenodd" clip-rule="evenodd" d="M0 3.45946C0 1.54885 1.54885 0 3.45946 0H12.5405C14.4511 0 16 1.54885 16 3.45946V12.5405C16 14.4511 14.4511 16 12.5405 16H3.45946C1.54885 16 0 14.4511 0 12.5405V3.45946ZM13.512 6.47658L13.556 6.69491L11.8185 7.11282L13.6626 8.47269L13.6438 8.70347L11.5864 7.94245L13.0605 10.6497L12.935 10.8493L11.0093 8.66607L11.5174 12.4587L11.2978 12.6271L10.0622 8.89686L8.03615 13.6626H7.71621L8.76365 8.59747L3.47589 11.4731L3.2877 11.2173L7.72872 7.54324L2.40329 6.96316L2.45972 6.64494L7.58446 6.22091L3.87108 4.10621L4.05926 3.89412L8.21794 5.27895L6.11668 2.64033L6.34877 2.57172L9.07733 4.75496L8.82015 2.40329H9.00833L10.0934 4.83602L11.0594 3.20178L11.2225 3.29528L11.0218 5.31635L12.6088 4.55533L12.7342 4.69254L11.6553 6.15223L13.512 6.47658Z" fill="#111111"/>
</svg>
