<svg width="18" height="19" viewBox="0 0 18 19" fill="none" xmlns="http://www.w3.org/2000/svg">
<path d="M5.74783 4.5631C5.57544 4.39066 5.47859 4.15681 5.47859 3.91298C5.47859 3.66915 5.57544 3.4353 5.74783 3.26286L8.28409 0.72673C8.37803 0.632752 8.48956 0.558203 8.61232 0.50734C8.73508 0.456477 8.86666 0.430298 8.99954 0.430298C9.13242 0.430298 9.264 0.456477 9.38676 0.50734C9.50952 0.558203 9.62105 0.632752 9.71499 0.72673L12.2503 3.26286C12.3382 3.34768 12.4082 3.44915 12.4564 3.56134C12.5046 3.67353 12.53 3.79419 12.531 3.91629C12.5321 4.03839 12.5088 4.15947 12.4626 4.27248C12.4164 4.38549 12.3481 4.48816 12.2617 4.5745C12.1754 4.66084 12.0727 4.72912 11.9597 4.77536C11.8467 4.82159 11.7256 4.84486 11.6035 4.8438C11.4814 4.84274 11.3607 4.81737 11.2485 4.76918C11.1363 4.72098 11.0348 4.65093 10.95 4.5631L9.91914 3.53229V8.51075H14.8979L13.867 7.47993C13.6944 7.3075 13.5974 7.0736 13.5974 6.82967C13.5973 6.58574 13.6941 6.35176 13.8665 6.17922C14.039 6.00667 14.2729 5.90969 14.5168 5.9096C14.7608 5.90952 14.9947 6.00633 15.1673 6.17876L17.7036 8.71489C17.7975 8.80882 17.8721 8.92035 17.923 9.0431C17.9738 9.16585 18 9.29743 18 9.4303C18 9.56317 17.9738 9.69474 17.923 9.8175C17.8721 9.94025 17.7975 10.0518 17.7036 10.1457L15.1673 12.6818C14.9947 12.8543 14.7608 12.9511 14.5168 12.951C14.2729 12.9509 14.039 12.8539 13.8665 12.6814C13.6941 12.5088 13.5973 12.2749 13.5974 12.0309C13.5974 11.787 13.6944 11.5531 13.867 11.3807L14.8979 10.3499H9.91914V15.3283L10.95 14.2975C11.1235 14.13 11.3557 14.0373 11.5969 14.0394C11.838 14.0415 12.0686 14.1382 12.2391 14.3087C12.4096 14.4792 12.5063 14.7098 12.5084 14.9509C12.5105 15.192 12.4178 15.4243 12.2503 15.5977L9.71499 18.1339C9.62105 18.2278 9.50952 18.3024 9.38676 18.3533C9.264 18.4041 9.13242 18.4303 8.99954 18.4303C8.86666 18.4303 8.73508 18.4041 8.61232 18.3533C8.48956 18.3024 8.37803 18.2278 8.28409 18.1339L5.74783 15.5977C5.66246 15.5123 5.59474 15.4109 5.54856 15.2993C5.50237 15.1877 5.47862 15.0681 5.47867 14.9473C5.47871 14.8265 5.50254 14.7069 5.54881 14.5953C5.59507 14.4838 5.66286 14.3824 5.7483 14.297C5.83374 14.2117 5.93515 14.1439 6.04676 14.0978C6.15837 14.0516 6.27799 14.0278 6.39878 14.0279C6.51957 14.0279 6.63916 14.0518 6.75074 14.098C6.86232 14.1443 6.96369 14.2121 7.04907 14.2975L8.07902 15.3283V10.3499H3.10215L4.13302 11.3807C4.21846 11.466 4.28624 11.5674 4.33251 11.679C4.37877 11.7906 4.4026 11.9101 4.40265 12.0309C4.40269 12.1517 4.37894 12.2713 4.33276 12.3829C4.28657 12.4945 4.21886 12.5959 4.13348 12.6814C4.0481 12.7668 3.94672 12.8346 3.83515 12.8809C3.72357 12.9271 3.60397 12.951 3.48319 12.951C3.3624 12.951 3.24278 12.9273 3.13117 12.8811C3.01956 12.8349 2.91814 12.7672 2.8327 12.6818L0.296447 10.1457C0.202465 10.0518 0.127911 9.94025 0.0770457 9.8175C0.0261803 9.69474 0 9.56317 0 9.4303C0 9.29743 0.0261803 9.16585 0.0770457 9.0431C0.127911 8.92035 0.202465 8.80882 0.296447 8.71489L2.8327 6.17876C3.00538 6.00646 3.23943 5.9098 3.48338 5.91006C3.72732 5.91032 3.96117 6.00747 4.13348 6.18014C4.30579 6.35281 4.40245 6.58685 4.40219 6.83078C4.40193 7.07471 4.30477 7.30854 4.1321 7.48085L3.10123 8.51075H8.07994V3.53321L7.04907 4.5631C6.96366 4.6486 6.86224 4.71643 6.7506 4.7627C6.63897 4.80898 6.5193 4.8328 6.39845 4.8328C6.2776 4.8328 6.15794 4.80898 6.0463 4.7627C5.93466 4.71643 5.83324 4.6486 5.74783 4.5631Z" fill="url(#paint0_radial_0_184)"/>
<defs>
<radialGradient id="paint0_radial_0_184" cx="0" cy="0" r="1" gradientUnits="userSpaceOnUse" gradientTransform="translate(18.0593 18.3561) rotate(42.8789) scale(20.8203 20.7632)">
<stop offset="0" stop-color="#663CFF"/>
<stop offset="1" stop-color="#663CFF"/>
</radialGradient>
</defs>
</svg>
