<svg width="18" height="19" viewBox="0 0 18 19" fill="none" xmlns="http://www.w3.org/2000/svg">
<path fill-rule="evenodd" clip-rule="evenodd" d="M8.57818 0.529877C8.84372 0.397105 9.15628 0.397105 9.42182 0.529877L17.4784 4.55826C17.7979 4.71804 17.9998 5.04464 17.9998 5.40191C17.9998 5.75918 17.7979 6.08579 17.4784 6.24557L9.42182 10.2739C9.15628 10.4067 8.84372 10.4067 8.57818 10.2739L0.5216 6.24557C0.202056 6.08579 0.000206628 5.75918 0.000206628 5.40191C0.000206628 5.04464 0.202056 4.71804 0.5216 4.55826L8.57818 0.529877ZM3.0525 5.40191L9 8.37573L14.9475 5.40191L9 2.42809L3.0525 5.40191ZM0.0997839 9.00847C0.332747 8.54254 0.899307 8.35368 1.36523 8.58665L9 12.4041L16.6348 8.58665C17.1007 8.35368 17.6673 8.54254 17.9002 9.00847C18.1332 9.47441 17.9443 10.041 17.4784 10.2739L9.42182 14.3023C9.15628 14.4351 8.84372 14.4351 8.57818 14.3023L0.5216 10.2739C0.0556748 10.041 -0.133179 9.47441 0.0997839 9.00847ZM0.0997839 13.0369C0.332747 12.5709 0.899307 12.3821 1.36523 12.615L9 16.4325L16.6348 12.615C17.1007 12.3821 17.6673 12.5709 17.9002 13.0369C18.1332 13.5028 17.9443 14.0694 17.4784 14.3023L9.42182 18.3307C9.15628 18.4635 8.84372 18.4635 8.57818 18.3307L0.5216 14.3023C0.0556747 14.0694 -0.133179 13.5028 0.0997839 13.0369Z" fill="url(#paint0_radial_0_194)"/>
<defs>
<radialGradient id="paint0_radial_0_194" cx="0" cy="0" r="1" gradientUnits="userSpaceOnUse" gradientTransform="translate(18.0593 18.3561) rotate(42.8789) scale(20.8203 20.7632)">
<stop offset="0" stop-color="#663CFF"/>
<stop offset="1" stop-color="#663CFF"/>
</radialGradient>
</defs>
</svg>
