<svg width="16" height="16" viewBox="0 0 16 16" fill="none" xmlns="http://www.w3.org/2000/svg">
    <path fill-rule="evenodd" clip-rule="evenodd" d="M15.2249 0.775057C14.9792 0.529336 14.6875 0.334418 14.3665 0.201432C14.0454 0.0684471 13.7014 0 13.3539 0C13.0064 0 12.6623 0.0684471 12.3413 0.201432C12.0202 0.334418 11.7285 0.529336 11.4828 0.775057L10.1308 2.12699C9.63824 1.89024 9.08427 1.81237 8.5455 1.90416C8.00673 1.99595 7.5098 2.25286 7.12342 2.63937L6.49459 3.26904C6.33073 3.43283 6.20074 3.6273 6.11205 3.84134C6.02336 4.05538 5.97771 4.28479 5.97771 4.51647C5.97771 4.74816 6.02336 4.97757 6.11205 5.19161C6.20074 5.40565 6.33073 5.60012 6.49459 5.76391L0.774342 11.483C0.528692 11.7288 0.333872 12.0205 0.201009 12.3416C0.0681463 12.6627 -0.000157177 13.0068 2.71586e-07 13.3543V14.9417C2.71586e-07 15.2224 0.111502 15.4916 0.309977 15.69C0.508451 15.8885 0.777641 16 1.05833 16H2.64582C3.34729 15.9994 4.01981 15.7202 4.51552 15.2239L10.2358 9.50577C10.3996 9.66962 10.5941 9.79961 10.8081 9.88829C11.0222 9.97697 11.2516 10.0226 11.4833 10.0226C11.715 10.0226 11.9444 9.97697 12.1584 9.88829C12.3725 9.79961 12.567 9.66962 12.7308 9.50577L13.3605 8.87521C13.747 8.48885 14.0039 7.99195 14.0957 7.45321C14.1875 6.91447 14.1097 6.36052 13.8729 5.86797L15.2249 4.51692C15.4706 4.27124 15.6656 3.97956 15.7986 3.65854C15.9315 3.33753 16 2.99346 16 2.64599C16 2.29851 15.9315 1.95445 15.7986 1.63343C15.6656 1.31241 15.4706 1.02074 15.2249 0.775057ZM2.02228 12.7308L7.74165 7.0109L8.98872 8.25789L3.26935 13.9778C3.10399 14.1432 2.8797 14.2362 2.64582 14.2362H1.76388V13.3543C1.76393 13.1205 1.85688 12.8962 2.02228 12.7308Z" fill="url(#paint0_radial_0_204)"/>
    <defs>
        <radialGradient id="paint0_radial_0_204" cx="0" cy="0" r="1" gradientUnits="userSpaceOnUse" gradientTransform="translate(16.0527 15.9341) rotate(42.8789) scale(18.5069 18.4562)">
            <stop offset="0" stop-color="#663CFF"/>
            <stop offset="1" stop-color="#663CFF"/>
        </radialGradient>
    </defs>
</svg>