<svg width="18" height="19" viewBox="0 0 18 19" fill="none" xmlns="http://www.w3.org/2000/svg">
<path d="M17.2801 0.430298H11.5206C11.4103 0.430287 11.3015 0.455599 11.2026 0.504281C11.1037 0.552963 11.0173 0.623714 10.95 0.71108L5.19053 8.19951L4.3212 7.33196C4.18748 7.19809 4.02868 7.09188 3.85388 7.01942C3.67908 6.94695 3.49171 6.90966 3.30249 6.90966C3.11327 6.90966 2.9259 6.94695 2.75111 7.01942C2.57631 7.09188 2.41751 7.19809 2.28378 7.33196L1.14178 8.47489C1.00804 8.6086 0.901953 8.76735 0.829572 8.94207C0.757191 9.11679 0.719937 9.30406 0.719937 9.49318C0.719937 9.6823 0.757191 9.86956 0.829572 10.0443C0.901953 10.219 1.00804 10.3778 1.14178 10.5115L2.94162 12.3113L0.421845 14.8312C0.288106 14.9649 0.182016 15.1237 0.109635 15.2984C0.0372543 15.4731 0 15.6604 0 15.8495C0 16.0386 0.0372543 16.2259 0.109635 16.4006C0.182016 16.5753 0.288106 16.7341 0.421845 16.8678L1.56384 18.0089C1.83385 18.2787 2.19994 18.4303 2.58166 18.4303C2.96337 18.4303 3.32946 18.2787 3.59947 18.0089L6.11924 15.489L7.91909 17.2889C8.05281 17.4228 8.21161 17.529 8.38641 17.6015C8.56121 17.6739 8.74857 17.7112 8.9378 17.7112C9.12702 17.7112 9.31438 17.6739 9.48918 17.6015C9.66398 17.529 9.82278 17.4228 9.95651 17.2889L11.0985 16.146C11.2322 16.0123 11.3383 15.8535 11.4107 15.6788C11.4831 15.5041 11.5204 15.3168 11.5204 15.1277C11.5204 14.9386 11.4831 14.7513 11.4107 14.5766C11.3383 14.4019 11.2322 14.2431 11.0985 14.1094L10.231 13.2419L17.7192 7.48225C17.8068 7.41481 17.8777 7.3281 17.9264 7.22884C17.9751 7.12959 18.0003 7.02045 18 6.90989V1.15025C18 0.959309 17.9241 0.776186 17.7891 0.641168C17.6541 0.50615 17.471 0.430298 17.2801 0.430298ZM2.58345 16.9893L1.44146 15.8481L3.96123 13.3283L5.10233 14.4694L2.58345 16.9893ZM8.9378 16.2693L2.16139 9.49363L3.30429 8.3498L10.0807 15.1273L8.9378 16.2693ZM16.5601 6.55531L9.20417 12.2142L8.21966 11.2296L12.7499 6.6993C12.8848 6.56421 12.9606 6.38103 12.9605 6.19007C12.9604 5.9991 12.8845 5.81599 12.7494 5.68102C12.6143 5.54604 12.4311 5.47026 12.2402 5.47035C12.0492 5.47043 11.8661 5.54637 11.7311 5.68147L7.20095 10.2109L6.21734 9.22634L11.8751 1.87021H16.5601V6.55531Z" fill="url(#paint0_radial_0_179)"/>
<defs>
<radialGradient id="paint0_radial_0_179" cx="0" cy="0" r="1" gradientUnits="userSpaceOnUse" gradientTransform="translate(18.0593 18.3561) rotate(42.8789) scale(20.8203 20.7632)">
<stop offset="0" stop-color="#663CFF"/>
<stop offset="1" stop-color="#663CFF"/>
</radialGradient>
</defs>
</svg>
