<svg width="18" height="17" viewBox="0 0 18 17" fill="none" xmlns="http://www.w3.org/2000/svg">
<path fill-rule="evenodd" clip-rule="evenodd" d="M3.08417 0.430298C3.5623 0.430298 3.9499 0.842582 3.9499 1.35116V6.85716C3.9499 7.36574 3.5623 7.77802 3.08417 7.77802C2.60604 7.77802 2.21844 7.36574 2.21844 6.85716V1.35116C2.21844 0.842582 2.60604 0.430298 3.08417 0.430298ZM9 0.430298C9.47813 0.430298 9.86573 0.842582 9.86573 1.35116V4.36315H11.2184C11.6966 4.36315 12.0842 4.77544 12.0842 5.28402C12.0842 5.79259 11.6966 6.20488 11.2184 6.20488H6.78156C6.30343 6.20488 5.91583 5.79259 5.91583 5.28402C5.91583 4.77544 6.30343 4.36315 6.78156 4.36315H8.13427V1.35116C8.13427 0.842582 8.52187 0.430298 9 0.430298ZM14.9158 0.430298C15.394 0.430298 15.7816 0.842582 15.7816 1.35116V8.4303C15.7816 8.93888 15.394 9.35116 14.9158 9.35116C14.4377 9.35116 14.0501 8.93888 14.0501 8.4303V1.35116C14.0501 0.842582 14.4377 0.430298 14.9158 0.430298ZM9 7.50943C9.47813 7.50943 9.86573 7.92172 9.86573 8.4303V15.5094C9.86573 16.018 9.47813 16.4303 9 16.4303C8.52187 16.4303 8.13427 16.018 8.13427 15.5094V8.4303C8.13427 7.92172 8.52187 7.50943 9 7.50943ZM0 10.0034C0 9.49486 0.387601 9.08258 0.865731 9.08258H5.30261C5.78074 9.08258 6.16834 9.49486 6.16834 10.0034C6.16834 10.512 5.78074 10.9243 5.30261 10.9243H3.9499V15.5094C3.9499 16.018 3.5623 16.4303 3.08417 16.4303C2.60604 16.4303 2.21844 16.018 2.21844 15.5094V10.9243H0.865731C0.387601 10.9243 0 10.512 0 10.0034ZM11.8317 11.5766C11.8317 11.068 12.2193 10.6557 12.6974 10.6557H17.1343C17.6124 10.6557 18 11.068 18 11.5766C18 12.0852 17.6124 12.4974 17.1343 12.4974H15.7816V15.5094C15.7816 16.018 15.394 16.4303 14.9158 16.4303C14.4377 16.4303 14.0501 16.018 14.0501 15.5094V12.4974H12.6974C12.2193 12.4974 11.8317 12.0852 11.8317 11.5766Z" fill="url(#paint0_radial_0_199)"/>
<defs>
<radialGradient id="paint0_radial_0_199" cx="0" cy="0" r="1" gradientUnits="userSpaceOnUse" gradientTransform="translate(18.0593 16.3644) rotate(39.5362) scale(19.7828 19.4241)">
<stop offset="0" stop-color="#663CFF"/>
<stop offset="1" stop-color="#663CFF"/>
</radialGradient>
</defs>
</svg>
