<svg width="18" height="17" viewBox="0 0 18 17" fill="none" xmlns="http://www.w3.org/2000/svg">
    <path id="Vector" d="M5.40054 7.95971C6.35542 7.95971 7.27118 7.56307 7.94638 6.85705C8.62158 6.15103 9.0009 5.19347 9.0009 4.195C9.0009 3.19654 8.62158 2.23897 7.94638 1.53295C7.27118 0.826935 6.35542 0.430298 5.40054 0.430298C4.44567 0.430298 3.5299 0.826935 2.8547 1.53295C2.1795 2.23897 1.80018 3.19654 1.80018 4.195C1.80018 5.19347 2.1795 6.15103 2.8547 6.85705C3.5299 7.56307 4.44567 7.95971 5.40054 7.95971ZM13.5014 7.95971C14.2175 7.95971 14.9043 7.66223 15.4107 7.13272C15.9171 6.6032 16.2016 5.88503 16.2016 5.13618C16.2016 4.38733 15.9171 3.66916 15.4107 3.13964C14.9043 2.61013 14.2175 2.31265 13.5014 2.31265C12.7852 2.31265 12.0984 2.61013 11.592 3.13964C11.0856 3.66916 10.8011 4.38733 10.8011 5.13618C10.8011 5.88503 11.0856 6.6032 11.592 7.13272C12.0984 7.66223 12.7852 7.95971 13.5014 7.95971ZM2.25023 9.84206C1.0081 9.84206 0 10.8962 0 12.195C0 12.195 0 16.4303 5.40054 16.4303C9.68137 16.4303 10.5689 13.7687 10.7525 12.6656C10.8011 12.3776 10.8011 12.195 10.8011 12.195C10.8011 10.8962 9.79298 9.84206 8.55086 9.84206H2.25023ZM12.5941 12.8538C12.5905 12.9291 12.5833 13.0182 12.5725 13.1211C12.4731 13.8972 12.2153 14.6419 11.8164 15.3047C12.2934 15.4195 12.8497 15.4891 13.4995 15.4891C18 15.4891 18 12.195 18 12.195C18 10.8962 16.9919 9.84206 15.7498 9.84206H11.9172C12.3492 10.5159 12.5995 11.3235 12.5995 12.195V12.6656L12.5941 12.8538Z" fill="url(#paint0_radial_0_189)"/>
    <defs>
        <radialGradient id="paint0_radial_0_189" cx="0" cy="0" r="1" gradientUnits="userSpaceOnUse" gradientTransform="translate(18.0593 16.3644) rotate(39.5362) scale(19.7828 19.4241)">
            <stop offset="0" stop-color="#663CFF"/>
            <stop offset="1" stop-color="#663CFF"/>
        </radialGradient>
    </defs>
</svg>
