<svg width="282" height="171" viewBox="0 0 282 171" fill="none" xmlns="http://www.w3.org/2000/svg">
    <path d="M69.0521 72.7142L61 83.3495L65.3358 70.7105L92.2794 61L106.371 65.1616L87.634 83.3495L95.5313 89.2067L63.6324 109.861L79.427 95.2179L74.317 90.748L90.1115 67.6278L69.0521 72.7142Z" fill="url(#paint0_radial_29_2)"/>
    <g filter="url(#filter0_f_29_2)">
        <path d="M69.0521 72.7142L61 83.3495L65.3358 70.7105L92.2794 61L106.371 65.1616L87.634 83.3495L95.5313 89.2067L63.6324 109.861L79.427 95.2179L74.317 90.748L90.1115 67.6278L69.0521 72.7142Z" fill="url(#paint1_radial_29_2)"/>
    </g>
    <g filter="url(#filter1_f_29_2)">
        <path d="M69.0521 72.7142L61 83.3495L65.3358 70.7105L92.2794 61L106.371 65.1616L87.634 83.3495L95.5313 89.2067L63.6324 109.861L79.427 95.2179L74.317 90.748L90.1115 67.6278L69.0521 72.7142Z" fill="url(#paint2_radial_29_2)"/>
    </g>
    <g filter="url(#filter2_f_29_2)">
        <path d="M69.0521 72.7142L61 83.3495L65.3358 70.7105L92.2794 61L106.371 65.1616L87.634 83.3495L95.5313 89.2067L63.6324 109.861L79.427 95.2179L74.317 90.748L90.1115 67.6278L69.0521 72.7142Z" fill="url(#paint3_radial_29_2)"/>
    </g>
    <path d="M130.282 86.091C131.332 86.2784 132.222 86.8312 132.953 87.7493C133.683 88.6675 134.049 89.7074 134.049 90.8692C134.049 91.8623 133.786 92.7617 133.262 93.5674C132.756 94.3544 132.016 94.9821 131.041 95.4506C130.067 95.9003 128.933 96.1252 127.64 96.1252H119.827V76.5909H127.275C128.605 76.5909 129.748 76.8158 130.704 77.2655C131.66 77.7152 132.381 78.3242 132.868 79.0924C133.355 79.8419 133.599 80.6851 133.599 81.622C133.599 82.7463 133.299 83.6832 132.7 84.4327C132.1 85.1822 131.294 85.735 130.282 86.091ZM123.031 84.7981H126.994C128.043 84.7981 128.858 84.5639 129.439 84.0954C130.039 83.6083 130.339 82.915 130.339 82.0155C130.339 81.1349 130.039 80.4509 129.439 79.9637C128.858 79.4578 128.043 79.2049 126.994 79.2049H123.031V84.7981ZM127.359 93.5112C128.446 93.5112 129.299 93.2489 129.917 92.7242C130.535 92.1996 130.845 91.4688 130.845 90.5319C130.845 89.5763 130.517 88.8174 129.861 88.2552C129.205 87.6931 128.334 87.412 127.247 87.412H123.031V93.5112H127.359Z" fill="white"/>
    <path d="M140.173 75.3261V96.1252H136.969V75.3261H140.173Z" fill="white"/>
    <path d="M142.749 88.3115C142.749 86.7562 143.068 85.379 143.705 84.1798C144.361 82.9805 145.241 82.053 146.347 81.3972C147.471 80.7226 148.708 80.3853 150.057 80.3853C151.275 80.3853 152.334 80.6289 153.233 81.1161C154.151 81.5846 154.882 82.1748 155.425 82.8868V80.6383H158.658V96.1252H155.425V93.8204C154.882 94.5512 154.142 95.1602 153.205 95.6473C152.268 96.1345 151.2 96.3781 150.001 96.3781C148.67 96.3781 147.453 96.0408 146.347 95.3663C145.241 94.673 144.361 93.7173 143.705 92.4994C143.068 91.2627 142.749 89.8667 142.749 88.3115ZM155.425 88.3677C155.425 87.2996 155.201 86.3721 154.751 85.5851C154.32 84.7981 153.748 84.1985 153.036 83.7863C152.324 83.374 151.556 83.1679 150.732 83.1679C149.907 83.1679 149.139 83.374 148.427 83.7863C147.715 84.1798 147.134 84.77 146.684 85.557C146.253 86.3252 146.038 87.2434 146.038 88.3115C146.038 89.3795 146.253 90.3164 146.684 91.1221C147.134 91.9279 147.715 92.5462 148.427 92.9772C149.158 93.3894 149.926 93.5955 150.732 93.5955C151.556 93.5955 152.324 93.3894 153.036 92.9772C153.748 92.565 154.32 91.9653 154.751 91.1784C155.201 90.3726 155.425 89.4357 155.425 88.3677Z" fill="white"/>
    <path d="M161.236 88.3115C161.236 86.7562 161.555 85.379 162.192 84.1798C162.848 82.9805 163.728 82.053 164.834 81.3972C165.958 80.7226 167.204 80.3853 168.572 80.3853C169.584 80.3853 170.577 80.6102 171.551 81.0599C172.544 81.4909 173.331 82.0717 173.912 82.8025V75.3261H177.145V96.1252H173.912V93.7923C173.388 94.5418 172.657 95.1602 171.72 95.6473C170.802 96.1345 169.743 96.3781 168.544 96.3781C167.195 96.3781 165.958 96.0408 164.834 95.3663C163.728 94.673 162.848 93.7173 162.192 92.4994C161.555 91.2627 161.236 89.8667 161.236 88.3115ZM173.912 88.3677C173.912 87.2996 173.687 86.3721 173.238 85.5851C172.807 84.7981 172.235 84.1985 171.523 83.7863C170.811 83.374 170.043 83.1679 169.218 83.1679C168.394 83.1679 167.626 83.374 166.914 83.7863C166.202 84.1798 165.621 84.77 165.171 85.557C164.74 86.3252 164.525 87.2434 164.525 88.3115C164.525 89.3795 164.74 90.3164 165.171 91.1221C165.621 91.9279 166.202 92.5462 166.914 92.9772C167.644 93.3894 168.413 93.5955 169.218 93.5955C170.043 93.5955 170.811 93.3894 171.523 92.9772C172.235 92.565 172.807 91.9653 173.238 91.1784C173.687 90.3726 173.912 89.4357 173.912 88.3677Z" fill="white"/>
    <path d="M194.985 88.0023C194.985 88.5832 194.947 89.1078 194.872 89.5763H183.04C183.133 90.813 183.592 91.8061 184.417 92.5556C185.241 93.3051 186.253 93.6799 187.452 93.6799C189.176 93.6799 190.394 92.9585 191.106 91.5156H194.563C194.095 92.9397 193.242 94.1108 192.006 95.029C190.788 95.9284 189.27 96.3781 187.452 96.3781C185.972 96.3781 184.642 96.0502 183.461 95.3944C182.299 94.7198 181.381 93.7829 180.707 92.5837C180.051 91.3657 179.723 89.9604 179.723 88.3677C179.723 86.775 180.041 85.379 180.679 84.1798C181.334 82.9618 182.243 82.0249 183.405 81.3691C184.585 80.7133 185.935 80.3853 187.452 80.3853C188.914 80.3853 190.216 80.7039 191.359 81.341C192.502 81.9781 193.392 82.8775 194.029 84.0392C194.666 85.1822 194.985 86.5033 194.985 88.0023ZM191.64 86.9904C191.621 85.81 191.2 84.8637 190.375 84.1517C189.551 83.4396 188.53 83.0836 187.312 83.0836C186.206 83.0836 185.26 83.4396 184.473 84.1517C183.686 84.845 183.218 85.7912 183.068 86.9904H191.64Z" fill="white"/>
    <path d="M203.247 86.3159C203.247 84.4046 203.687 82.6901 204.568 81.1723C205.467 79.6546 206.676 78.4741 208.194 77.6309C209.73 76.7689 211.407 76.338 213.225 76.338C215.305 76.338 217.151 76.8533 218.762 77.8838C220.392 78.8957 221.573 80.3385 222.303 82.2123H218.453C217.947 81.1817 217.244 80.4134 216.345 79.9075C215.445 79.4016 214.405 79.1486 213.225 79.1486C211.932 79.1486 210.78 79.4391 209.768 80.02C208.756 80.6008 207.96 81.4347 207.379 82.5215C206.817 83.6083 206.536 84.8731 206.536 86.3159C206.536 87.7587 206.817 89.0235 207.379 90.1103C207.96 91.1971 208.756 92.0403 209.768 92.6399C210.78 93.2208 211.932 93.5112 213.225 93.5112C214.405 93.5112 215.445 93.2583 216.345 92.7523C217.244 92.2464 217.947 91.4782 218.453 90.4476H222.303C221.573 92.3214 220.392 93.7642 218.762 94.776C217.151 95.7879 215.305 96.2938 213.225 96.2938C211.389 96.2938 209.712 95.8722 208.194 95.029C206.676 94.167 205.467 92.9772 204.568 91.4594C203.687 89.9417 203.247 88.2271 203.247 86.3159Z" fill="white"/>
    <path d="M228.696 75.3261V96.1252H225.492V75.3261H228.696Z" fill="white"/>
    <path d="M233.971 78.5865C233.39 78.5865 232.903 78.3898 232.509 77.9963C232.116 77.6028 231.919 77.1156 231.919 76.5347C231.919 75.9538 232.116 75.4666 232.509 75.0732C232.903 74.6797 233.39 74.4829 233.971 74.4829C234.533 74.4829 235.011 74.6797 235.404 75.0732C235.798 75.4666 235.995 75.9538 235.995 76.5347C235.995 77.1156 235.798 77.6028 235.404 77.9963C235.011 78.3898 234.533 78.5865 233.971 78.5865ZM235.545 80.6383V96.1252H232.341V80.6383H235.545Z" fill="white"/>
    <path d="M253.383 88.0023C253.383 88.5832 253.346 89.1078 253.271 89.5763H241.438C241.532 90.813 241.991 91.8061 242.815 92.5556C243.64 93.3051 244.652 93.6799 245.851 93.6799C247.575 93.6799 248.793 92.9585 249.505 91.5156H252.962C252.493 92.9397 251.641 94.1108 250.404 95.029C249.186 95.9284 247.668 96.3781 245.851 96.3781C244.37 96.3781 243.04 96.0502 241.86 95.3944C240.698 94.7198 239.78 93.7829 239.105 92.5837C238.449 91.3657 238.121 89.9604 238.121 88.3677C238.121 86.775 238.44 85.379 239.077 84.1798C239.733 82.9618 240.642 82.0249 241.803 81.3691C242.984 80.7133 244.333 80.3853 245.851 80.3853C247.312 80.3853 248.615 80.7039 249.758 81.341C250.901 81.9781 251.791 82.8775 252.428 84.0392C253.065 85.1822 253.383 86.5033 253.383 88.0023ZM250.039 86.9904C250.02 85.81 249.598 84.8637 248.774 84.1517C247.949 83.4396 246.928 83.0836 245.71 83.0836C244.605 83.0836 243.658 83.4396 242.871 84.1517C242.084 84.845 241.616 85.7912 241.466 86.9904H250.039Z" fill="white"/>
    <path d="M263.788 80.3853C265.006 80.3853 266.093 80.6383 267.049 81.1442C268.023 81.6501 268.782 82.3997 269.325 83.3928C269.869 84.3859 270.14 85.5851 270.14 86.9904V96.1252H266.964V87.4683C266.964 86.0817 266.618 85.023 265.924 84.2922C265.231 83.5427 264.285 83.1679 263.086 83.1679C261.886 83.1679 260.931 83.5427 260.219 84.2922C259.525 85.023 259.179 86.0817 259.179 87.4683V96.1252H255.974V80.6383H259.179V82.409C259.703 81.7719 260.369 81.2754 261.174 80.9194C261.999 80.5634 262.87 80.3853 263.788 80.3853Z" fill="white"/>
    <path d="M277.404 83.2522V91.8248C277.404 92.4057 277.535 92.8273 277.797 93.0896C278.078 93.3332 278.547 93.455 279.202 93.455H281.17V96.1252H278.64C277.197 96.1252 276.092 95.7879 275.324 95.1133C274.555 94.4387 274.171 93.3426 274.171 91.8248V83.2522H272.344V80.6383H274.171V76.7877H277.404V80.6383H281.17V83.2522H277.404Z" fill="white"/>
    <defs>
        <filter id="filter0_f_29_2" x="34.3" y="34.3" width="98.7706" height="102.261" filterUnits="userSpaceOnUse" color-interpolation-filters="sRGB">
            <feFlood flood-opacity="0" result="BackgroundImageFix"/>
            <feBlend mode="normal" in="SourceGraphic" in2="BackgroundImageFix" result="shape"/>
            <feGaussianBlur stdDeviation="13.35" result="effect1_foregroundBlur_29_2"/>
        </filter>
        <filter id="filter1_f_29_2" x="4.8" y="4.8" width="157.771" height="161.261" filterUnits="userSpaceOnUse" color-interpolation-filters="sRGB">
            <feFlood flood-opacity="0" result="BackgroundImageFix"/>
            <feBlend mode="normal" in="SourceGraphic" in2="BackgroundImageFix" result="shape"/>
            <feGaussianBlur stdDeviation="28.1" result="effect1_foregroundBlur_29_2"/>
        </filter>
        <filter id="filter2_f_29_2" x="0.799999" y="0.799999" width="165.771" height="169.261" filterUnits="userSpaceOnUse" color-interpolation-filters="sRGB">
            <feFlood flood-opacity="0" result="BackgroundImageFix"/>
            <feBlend mode="normal" in="SourceGraphic" in2="BackgroundImageFix" result="shape"/>
            <feGaussianBlur stdDeviation="30.1" result="effect1_foregroundBlur_29_2"/>
        </filter>
        <radialGradient id="paint0_radial_29_2" cx="0" cy="0" r="1" gradientUnits="userSpaceOnUse" gradientTransform="translate(106.52 109.659) rotate(45) scale(54.3859 54.3859)">
            <stop offset="0" stop-color="#663CFF"/>
            <stop offset="1" stop-color="#663CFF"/>
        </radialGradient>
        <radialGradient id="paint1_radial_29_2" cx="0" cy="0" r="1" gradientUnits="userSpaceOnUse" gradientTransform="translate(106.52 109.659) rotate(45) scale(54.3859 54.3859)">
            <stop offset="0" stop-color="#663CFF"/>
            <stop offset="1" stop-color="#663CFF"/>
        </radialGradient>
        <radialGradient id="paint2_radial_29_2" cx="0" cy="0" r="1" gradientUnits="userSpaceOnUse" gradientTransform="translate(106.52 109.659) rotate(45) scale(54.3859 54.3859)">
            <stop offset="0" stop-color="#663CFF"/>
            <stop offset="1" stop-color="#663CFF"/>
        </radialGradient>
        <radialGradient id="paint3_radial_29_2" cx="0" cy="0" r="1" gradientUnits="userSpaceOnUse" gradientTransform="translate(106.52 109.659) rotate(45) scale(54.3859 54.3859)">
            <stop offset="0" stop-color="#663CFF"/>
            <stop offset="1" stop-color="#663CFF"/>
        </radialGradient>
    </defs>
</svg>