<svg width="13" height="15" viewBox="0 0 13 15" fill="none" xmlns="http://www.w3.org/2000/svg">
<path d="M4.88169 0.722986C7.39799 0.0281588 9.99017 0.997004 11.5555 3.07413V1.27964C11.5555 0.850174 11.8789 0.502023 12.2777 0.501997C12.6766 0.501997 13 0.850158 13 1.27964V5.16783C12.9999 5.5972 12.6766 5.94547 12.2777 5.94547H8.66647C8.26768 5.94545 7.94435 5.59718 7.94422 5.16783C7.94422 4.73837 8.2676 4.39022 8.66647 4.39019H10.6675C9.49066 2.55116 7.33875 1.65038 5.2407 2.22966V2.2289C4.35189 2.47509 3.54228 2.97763 2.89832 3.68166C2.25433 4.38572 1.80002 5.26504 1.585 6.2257C1.36998 7.18638 1.40196 8.19238 1.6774 9.13501C1.95283 10.0775 2.46165 10.9215 3.14871 11.5765C3.83586 12.2316 4.67615 12.6728 5.57856 12.8531C6.48087 13.0333 7.41193 12.9455 8.27149 12.5995C9.13102 12.2533 9.88693 11.6619 10.458 10.8885C11.0291 10.1151 11.3938 9.18892 11.5132 8.20929C11.565 7.78345 11.9281 7.48288 12.3236 7.53872C12.719 7.59469 12.9975 7.98554 12.9457 8.41129C12.7922 9.67098 12.3229 10.8622 11.5886 11.8567C10.8543 12.8512 9.88241 13.6118 8.77721 14.0568C7.67196 14.5018 6.47496 14.6143 5.31476 14.3826C4.15455 14.1508 3.07505 13.5829 2.19158 12.7407C1.3081 11.8985 0.654029 10.8132 0.299893 9.60129C-0.0542046 8.38937 -0.0957496 7.09629 0.180693 5.86118C0.457164 4.62609 1.04128 3.49557 1.86924 2.59038C2.69722 1.6852 3.73822 1.0395 4.88099 0.722986H4.88169Z" fill="#8C889A"/>
</svg>
