<svg width="9" height="9" viewBox="0 0 9 9" fill="none" xmlns="http://www.w3.org/2000/svg">
<path fill-rule="evenodd" clip-rule="evenodd" d="M4.05556 1C2.36802 1 1 2.36802 1 4.05556C1 5.74309 2.36802 7.11111 4.05556 7.11111C4.87733 7.11111 5.62334 6.7867 6.1725 6.25896C6.18494 6.24307 6.19848 6.22775 6.21311 6.21311C6.22775 6.19848 6.24307 6.18494 6.25896 6.1725C6.7867 5.62334 7.11111 4.87733 7.11111 4.05556C7.11111 2.36802 5.74309 1 4.05556 1ZM7.25507 6.54797C7.79151 5.86032 8.11111 4.99526 8.11111 4.05556C8.11111 1.81573 6.29538 0 4.05556 0C1.81573 0 0 1.81573 0 4.05556C0 6.29538 1.81573 8.11111 4.05556 8.11111C4.99526 8.11111 5.86032 7.79151 6.54797 7.25507L8.14645 8.85355C8.34171 9.04882 8.65829 9.04882 8.85355 8.85355C9.04882 8.65829 9.04882 8.34171 8.85355 8.14645L7.25507 6.54797Z" fill="#8C889A"/>
</svg>
