<svg width="11" height="13" viewBox="0 0 11 13" fill="none" xmlns="http://www.w3.org/2000/svg">
<path d="M5.49938 0.394532C5.73925 0.394532 5.94509 0.394294 6.11462 0.40625C6.28903 0.418574 6.46298 0.44545 6.63317 0.518555L6.6322 0.519532C6.82293 0.601412 6.99589 0.719698 7.14001 0.869141C7.28394 1.01841 7.397 1.19504 7.47399 1.3877L7.52478 1.54297C7.55232 1.64832 7.5678 1.75574 7.57653 1.86523L7.58532 2.03027V2.03711C7.58693 2.10647 7.60544 2.17351 7.63806 2.23145C7.66973 2.28768 7.71423 2.33149 7.76403 2.36328C7.81393 2.39046 7.86792 2.40596 7.92224 2.40625C7.97939 2.40649 8.03702 2.39086 8.08923 2.36133L8.09509 2.3584C8.28725 2.25315 8.4814 2.16228 8.70153 2.13184H8.70251C8.90804 2.10377 9.11689 2.11833 9.31677 2.17383C9.46674 2.21548 9.6093 2.27928 9.73962 2.36328L9.8656 2.4541L9.86657 2.45508C10.0097 2.5696 10.1163 2.70843 10.2123 2.85645C10.3061 3.00122 10.4081 3.18533 10.5287 3.40137H10.5297C10.6497 3.61744 10.7517 3.80138 10.8256 3.95801C10.9013 4.11861 10.9635 4.28197 10.9867 4.46387C11.0129 4.66988 10.9995 4.87999 10.9476 5.08106C10.8958 5.28171 10.8051 5.47014 10.682 5.63672C10.5492 5.81655 10.377 5.9455 10.1957 6.06445L10.1937 6.06641C10.0787 6.14121 10.0115 6.26352 10.0101 6.39063C10.0115 6.45907 10.0292 6.52541 10.0609 6.58301C10.0769 6.61203 10.096 6.63817 10.1175 6.66113L10.1888 6.7207L10.1947 6.72461C10.3322 6.81435 10.4629 6.90844 10.5756 7.02539L10.682 7.15039V7.15137C10.8053 7.3181 10.8957 7.5071 10.9476 7.70801C10.9995 7.90907 11.0129 8.11918 10.9867 8.3252C10.9637 8.50781 10.9014 8.67164 10.8256 8.83203C10.7515 8.98861 10.6488 9.17196 10.5287 9.3877C10.4084 9.60365 10.3071 9.7877 10.2133 9.93262C10.1413 10.0438 10.0625 10.1496 9.96716 10.2441L9.8656 10.335C9.70318 10.4642 9.51674 10.5597 9.31677 10.6152C9.11689 10.6707 8.90804 10.6853 8.70251 10.6572H8.70153C8.48136 10.6268 8.2871 10.5361 8.09509 10.4307L8.08923 10.4268C8.03696 10.3972 7.97946 10.3825 7.92224 10.3828C7.86631 10.3831 7.81026 10.398 7.75915 10.4268C7.66589 10.4838 7.59074 10.6018 7.58532 10.7578V10.7588C7.57934 10.9269 7.56551 11.0886 7.52478 11.2451L7.47399 11.4004C7.39699 11.5933 7.28411 11.7705 7.14001 11.9199C6.99589 12.0694 6.82293 12.1877 6.6322 12.2695C6.46205 12.3426 6.28897 12.3705 6.11462 12.3828C5.94509 12.3948 5.73925 12.3945 5.49938 12.3945C5.25952 12.3945 5.05368 12.3948 4.88415 12.3828C4.70974 12.3705 4.53579 12.3436 4.3656 12.2705C4.17502 12.1886 4.00278 12.0693 3.85876 11.9199C3.71483 11.7707 3.60177 11.594 3.52478 11.4014C3.44211 11.1955 3.42136 10.9811 3.41345 10.7588V10.7578C3.40805 10.6023 3.33293 10.4846 3.23864 10.4268C3.18774 10.3982 3.13219 10.3831 3.07653 10.3828C3.01931 10.3825 2.96181 10.3972 2.90954 10.4268L2.90368 10.4307C2.71167 10.5361 2.51741 10.6268 2.29724 10.6572H2.29626C2.09073 10.6853 1.88188 10.6707 1.682 10.6152C1.48203 10.5597 1.29559 10.4642 1.13317 10.335L1.1322 10.334C0.989068 10.2195 0.882487 10.0806 0.786494 9.93262C0.69263 9.78785 0.590631 9.60373 0.470088 9.3877H0.469112C0.349064 9.17163 0.247108 8.98768 0.173213 8.83105C0.0974533 8.67046 0.0352637 8.50709 0.0120803 8.3252C-0.0141299 8.11918 -0.00076532 7.90907 0.0511428 7.70801C0.103054 7.5071 0.193455 7.3181 0.316768 7.15137C0.4495 6.97167 0.621817 6.8435 0.803096 6.72461L0.805049 6.72266C0.921221 6.64708 0.988643 6.52303 0.988643 6.39453C0.988643 6.26607 0.921101 6.14171 0.804072 6.06543V6.06445C0.620884 5.9449 0.449466 5.81721 0.316768 5.63867V5.6377C0.193455 5.47096 0.103054 5.28196 0.0511428 5.08106C-0.00076532 4.87999 -0.0141299 4.66989 0.0120803 4.46387C0.0350535 4.28125 0.0973483 4.11743 0.173213 3.95703C0.247281 3.80045 0.349969 3.6171 0.470088 3.40137C0.590554 3.18501 0.692543 3.00135 0.786494 2.85645C0.882524 2.70836 0.988746 2.56943 1.13122 2.45508L1.13317 2.4541C1.46146 2.19295 1.88027 2.0751 2.29626 2.13184L2.45739 2.16602C2.61415 2.2092 2.75958 2.27924 2.90368 2.3584L2.90954 2.36231C2.96181 2.39186 3.01931 2.40654 3.07653 2.40625C3.13095 2.40596 3.18476 2.39055 3.23474 2.36328C3.28454 2.33149 3.32904 2.28768 3.36071 2.23145C3.39333 2.17351 3.41184 2.10647 3.41345 2.03711V2.03027C3.42142 1.80678 3.44347 1.59306 3.52478 1.38867L3.58923 1.24707C3.66035 1.10905 3.75068 0.981227 3.85876 0.869141C4.00269 0.719894 4.17516 0.601404 4.3656 0.519532C4.53579 0.446426 4.70974 0.418574 4.88415 0.40625C5.05368 0.394294 5.25952 0.394532 5.49938 0.394532ZM6.59021 6.39453C6.59021 5.74208 6.0849 5.24414 5.49938 5.24414C4.91387 5.24414 4.40856 5.74208 4.40856 6.39453C4.40856 7.04698 4.91387 7.54492 5.49938 7.54492C6.0849 7.54492 6.59021 7.04698 6.59021 6.39453ZM1.98864 6.39453C1.98864 6.87901 1.73434 7.30936 1.34997 7.55957L1.35095 7.56055C1.19196 7.66483 1.14363 7.71376 1.12048 7.74512V7.74609C1.07448 7.80834 1.04003 7.88021 1.01989 7.95801C0.999771 8.03595 0.994107 8.11791 1.00427 8.19824C1.00867 8.23287 1.0231 8.28894 1.07751 8.4043C1.13392 8.52385 1.21668 8.67377 1.34313 8.90137L1.50524 9.18848C1.55097 9.26806 1.58957 9.33346 1.62536 9.38867C1.69402 9.49454 1.73239 9.53352 1.75622 9.55273L1.84899 9.6123C1.88137 9.62885 1.91508 9.64178 1.94958 9.65137C2.01855 9.67052 2.09012 9.67557 2.16052 9.66602L2.24255 9.64258C2.28326 9.62638 2.33999 9.5989 2.42224 9.55371C2.62367 9.4409 2.85113 9.38159 3.08239 9.38281C3.25721 9.3838 3.42923 9.41941 3.58923 9.48633L3.74548 9.56445L3.75231 9.56836C4.16869 9.81894 4.39647 10.2661 4.41247 10.7227C4.41938 10.9172 4.43681 10.989 4.45251 11.0283L4.45349 11.0303C4.48307 11.1043 4.52561 11.1707 4.57849 11.2256C4.63145 11.2805 4.69432 11.3229 4.7611 11.3516C4.78564 11.362 4.83368 11.3772 4.95446 11.3857C5.08062 11.3946 5.24533 11.3945 5.49938 11.3945C5.75344 11.3945 5.91815 11.3946 6.04431 11.3857C6.16569 11.3772 6.21421 11.3621 6.23864 11.3516C6.30528 11.3229 6.36742 11.2804 6.42028 11.2256C6.47316 11.1707 6.5157 11.1043 6.54528 11.0303L6.56872 10.9336C6.57599 10.886 6.58287 10.8193 6.5863 10.7227C6.60229 10.2664 6.82973 9.81764 7.24743 9.56738L7.25329 9.56348C7.45473 9.44664 7.68318 9.38413 7.91638 9.38281C8.14764 9.38159 8.3751 9.4409 8.57653 9.55371L8.75622 9.64258C8.79664 9.65866 8.82118 9.66364 8.83825 9.66602H8.83728C8.90785 9.67567 8.98004 9.67057 9.04919 9.65137C9.11818 9.6322 9.18403 9.59921 9.24255 9.55273C9.26567 9.53431 9.30406 9.49577 9.37341 9.38867C9.44487 9.27828 9.52882 9.12913 9.65563 8.90137C9.78255 8.67343 9.86475 8.52375 9.92126 8.4043C9.9757 8.28921 9.99025 8.2342 9.9945 8.2002V8.19824C10.0047 8.11791 9.999 8.03594 9.97888 7.95801C9.95874 7.88021 9.92429 7.80835 9.87829 7.74609V7.74512C9.85369 7.71245 9.80398 7.66281 9.6488 7.56152V7.56055C9.45507 7.43658 9.29571 7.26651 9.18493 7.06543C9.07296 6.86203 9.01326 6.63334 9.01013 6.40137V6.39453C9.01013 5.91016 9.26358 5.47875 9.64782 5.22852L9.81384 5.1084C9.84853 5.07929 9.86674 5.0596 9.87829 5.04395V5.04297C9.92429 4.98072 9.95874 4.90885 9.97888 4.83106C9.999 4.75312 10.0047 4.67115 9.9945 4.59082C9.9901 4.5562 9.97567 4.50012 9.92126 4.38477C9.89308 4.32503 9.85834 4.25748 9.81481 4.17676L9.65563 3.8877C9.52866 3.66014 9.44496 3.51074 9.37341 3.40039C9.30475 3.29453 9.26638 3.25554 9.24255 3.23633C9.18403 3.18985 9.11818 3.15687 9.04919 3.1377C8.98004 3.11849 8.90785 3.11241 8.83728 3.12207L8.83825 3.12305C8.8039 3.12782 8.74028 3.14514 8.57556 3.23535C8.37427 3.34795 8.14741 3.40747 7.91638 3.40625C7.68345 3.40498 7.45556 3.34213 7.25427 3.22559L7.24743 3.22168L7.24157 3.21777C7.04359 3.09536 6.8809 2.92406 6.76696 2.72168C6.65308 2.51938 6.59064 2.29146 6.58532 2.05957V2.05859C6.57824 1.86978 6.56175 1.79951 6.54626 1.76074L6.54528 1.75879C6.5157 1.68479 6.47316 1.61834 6.42028 1.56348C6.36742 1.50865 6.30528 1.46617 6.23864 1.4375H6.23767C6.21312 1.42702 6.16509 1.41186 6.04431 1.40332C5.91815 1.39442 5.75344 1.39453 5.49938 1.39453C5.24533 1.39453 5.08062 1.39442 4.95446 1.40332C4.83368 1.41186 4.78564 1.42702 4.7611 1.4375H4.76013C4.69349 1.46617 4.63135 1.50865 4.57849 1.56348C4.55199 1.59097 4.52826 1.62158 4.5072 1.6543L4.45349 1.75879C4.43749 1.79909 4.41953 1.87131 4.41247 2.05859L4.41345 2.05957C4.40813 2.29146 4.34569 2.51938 4.23181 2.72168C4.11786 2.92406 3.95518 3.09536 3.7572 3.21777L3.74548 3.22559L3.7445 3.22461C3.54312 3.34136 3.3155 3.40493 3.08239 3.40625C2.85113 3.40747 2.62367 3.34816 2.42224 3.23535L2.24255 3.14746L2.16052 3.12305C2.0192 3.10384 1.874 3.14282 1.75622 3.23633C1.73217 3.25591 1.69349 3.29533 1.62536 3.40039C1.55385 3.51068 1.4698 3.66021 1.34313 3.8877C1.21622 4.11563 1.13402 4.26531 1.07751 4.38477C1.02307 4.49986 1.00852 4.55486 1.00427 4.58887V4.59082C0.994107 4.67115 0.999771 4.75312 1.01989 4.83106C1.03992 4.9084 1.07391 4.98 1.1195 5.04199C1.14372 5.07457 1.19268 5.12446 1.34899 5.22656C1.73356 5.47699 1.98864 5.90925 1.98864 6.39453ZM7.59021 6.39453C7.59021 7.56462 6.67121 8.54492 5.49938 8.54492C4.32756 8.54492 3.40856 7.56462 3.40856 6.39453C3.40856 5.22444 4.32756 4.24414 5.49938 4.24414C6.67121 4.24414 7.59021 5.22444 7.59021 6.39453Z" fill="#8C889A"/>
</svg>
